Patient4_TMGait_0pt6_02_right_46_EMG.mot
version=1
nRows=36
nColumns=33
inDegrees=no
endheader
time	1LAddLong	2LGlutMax	3LGlutMed	4LIliopsoas	5LSemiMemb	6LBicFemLong	7LRecFem	8LVastMed	9LVastLat	10LGasMed	11LTibAnt	12lTibPost	13LPeroneusLong	14LSol	15LExtDigLong	16LFlexDigLong	17RAddLong	18RGlutMax	19RGlutMed	20RIliopsoas	21RSemiMemb	22RBicFemLong	23RRecFem	24RVastMed	25RVastLat	26RGasMed	27RTibAnt	28RTibPost	29RPeroneusLong	30RSol	31RExtDigLong	32RFlexDigLong
55.53	0.010223	-0.14877	0.09079	0.015411	-0.00412	0.045013	-0.0383	0.011597	0.046692	-0.047455	0.01358	-0.069733	-0.072784	-0.47119	-0.027008	0.3688	-0.21225	-0.22049	-0.13672	-0.13458	0.016632	0.48294	0.33981	-0.20035	-0.027618	-0.015411	0.085297	-0.014343	-0.17395	-0.035553	-0.00351	-0.00061
55.531	0.005035	-0.20874	0.10056	0.012512	0.029449	0.001984	-0.057678	0.017548	-0.18036	-0.015564	0.010223	-0.037079	-0.026855	-0.2182	-0.013275	-0.004578	-0.24826	-0.23468	-0.20798	-0.10101	0.016632	0.47028	0.26855	-0.1442	-0.012665	-0.015564	0.30853	-0.01297	-0.23789	-0.036774	-0.004578	0
55.532	0.007782	-0.20264	0.08316	0.010986	0.074768	-0.083771	-0.11276	0.021667	0.045776	0.018158	0.005341	-0.025482	-0.009155	-0.14313	0.088654	0.038605	-0.25635	-0.2594	-0.35828	-0.051727	0.027313	0.46921	0.1828	-0.15442	-0.02121	-0.015564	0.49591	-0.01358	-0.10513	-0.034485	-0.007477	-0.00061
55.533	-0.004578	-0.20035	0.19638	-0.002289	0.04837	-0.10422	-0.011749	0.024109	0.12314	-0.003357	0.070648	-0.073547	-0.094299	0.12833	0.10025	0.159	-0.26291	-0.20096	-0.12543	-0.12543	0.058136	0.4599	0.10666	-0.10941	-0.00946	-0.010681	0.3537	-0.012665	0.037689	-0.077667	-0.002136	-0.00351
55.534	0.012054	-0.19898	0.15457	0.010071	0.014496	-0.14648	0.052643	0.016937	-0.018463	0.006714	0.15961	0.14206	-0.1088	0.23056	0.032349	-0.14969	-0.23132	-0.15366	0.13001	-0.093994	0.084839	0.47958	-0.009003	-0.056458	0.001068	-0.012207	0.19211	-0.01358	-0.00824	-0.12848	-0.002747	0.007782
55.535	-0.002747	-0.22553	0.14984	-0.006409	0.011749	-0.1506	0.11734	0.004578	-0.020905	-0.027618	0.18799	-0.034943	-0.03952	0.053558	-0.028381	-0.37628	-0.17029	-0.16327	-0.094147	-0.10666	0.10529	0.43854	-0.1416	-0.041656	0.013733	-0.002747	0.19867	-0.002594	-0.061493	-0.1831	-0.001831	-0.001831
55.536	-0.001984	-0.21576	0.1001	-0.006256	0.015564	-0.056763	0.18326	-0.003052	-0.030518	-0.05661	0.060272	-0.10101	0.031891	0.003052	0.025024	0.10361	-0.11353	-0.17059	-0.50171	-0.055084	0.061646	0.3746	-0.14114	-0.06546	0.014496	0.010529	-0.3183	-0.01236	-0.042419	-0.16403	-0.010223	0.003052
55.537	0.00351	-0.19821	0.071259	0.004425	0.003967	-0.010529	0.14069	-0.018616	-0.10239	-0.049133	-0.10712	0.002441	0.082703	0.1001	0.098267	0.13657	-0.07019	-0.21255	-0.35858	0.040894	0.041962	0.35141	-0.19852	-0.037689	0.020142	0.006104	0.18967	-0.00946	-0.04364	-0.19043	-0.004883	-0.004425
55.538	0.004425	-0.19592	0.077515	0.015564	-0.011292	0.046539	0.08667	-0.010986	-0.15839	-0.012207	-0.12177	0.002136	0.030212	0.1651	0.029602	-0.11551	-0.014038	-0.21744	-0.31601	0.16602	0.043945	0.30594	-0.20401	-0.0737	0.033417	-0.002289	0.39444	-0.009003	-0.1831	-0.16602	-0.009155	-0.002289
55.539	0.003357	-0.18173	0.066986	0.015564	-0.026245	0.1297	0.093994	-0.009613	-0.029602	0.14847	-0.16403	-0.010681	0.028381	0.11169	-0.12878	-0.036316	0.042267	-0.16586	-0.39963	0.091248	0.069275	0.28061	-0.21469	-0.08255	0.016174	-0.006866	0.20401	-0.007935	-0.2475	-0.14847	-0.00473	-0.007477
55.54	0.010986	-0.17166	0.08255	0.004272	-0.030823	0.086517	0.11978	-0.005798	-0.030212	0.14465	-0.1915	-0.009308	0.01358	0.097504	-0.23315	0.15625	0.078583	-0.24277	-0.081635	-0.11139	0.056458	0.24963	-0.14801	-0.072784	-0.023804	-0.00061	-0.19943	-0.011749	-0.1535	-0.14725	-0.002289	-0.012512
55.541	0.005035	-0.16708	0.069275	-0.010071	-0.023193	0.039978	0.089874	0.000458	-0.084076	0.093536	-0.062714	-0.00885	0.013275	0.11841	-0.21408	0.15152	0.10498	-0.22903	-0.046997	-0.27084	0.041656	0.19608	-0.1445	-0.084229	-0.014954	0.006256	-0.49698	-0.006561	0.07782	-0.21591	-0.00061	-0.012665
55.542	0.018005	-0.17197	0.057068	0.013428	0.024414	-0.017853	-0.007019	0.011749	-0.092163	0.10803	0.006104	-0.015106	-0.008698	-0.002289	-0.14542	-0.31815	0.13016	-0.20081	0.015411	-0.22064	0.02655	0.14145	-0.13443	-0.087585	-0.003662	0.005188	-0.51758	0.00061	0.16083	-0.11276	-0.002747	-0.006561
55.543	0.001831	-0.16037	0.075989	0.028381	0.021057	-0.03067	0.006256	0.015564	-0.072479	0.11841	0.039825	-0.018311	-0.028381	-0.054932	0.5249	-0.013428	0.085602	-0.22812	0.10361	-0.086365	0.00885	0.094757	-0.004883	-0.11215	-0.037231	-0.004578	-0.34195	-0.009003	0.20309	0.011292	-0.005341	-0.003662
55.544	0.002899	-0.17578	0.097198	0.00351	0.005035	0.003662	0.035095	0.015411	-0.045319	0.073395	0.087433	-0.01297	0.008698	-0.023956	1.1711	0.12238	0.025024	-0.22232	0.046539	0.15915	-0.001221	0.072174	0.013885	-0.1181	-0.038757	-0.007935	0.16495	-0.009766	0.25864	0.042572	-0.000763	-0.005798
55.545	0	-0.17731	0.071564	-0.008698	0.022736	0.022125	0.041046	0.009613	-0.000305	0.007782	0.13977	-0.007477	0.073547	-0.014191	0.19699	0.041351	-0.014496	-0.25101	0.080109	0.28366	-0.007477	0.044098	0.012817	-0.073395	-0.0177	0.010681	-0.054779	-0.007172	0.2478	0.11459	-0.001831	-0.001373
55.546	-0.007629	-0.18753	0.005188	-0.010681	-0.048676	0.050812	0.066071	-0.02243	0.025482	-0.051727	0.19058	-0.012665	0.14801	0.20523	-0.061493	0.02182	-0.015869	-0.26916	-0.17685	0.12421	-0.018921	-0.002289	0.006104	-0.089569	-0.021362	0.010071	-0.76111	-0.000763	0.18829	0.16434	-0.004272	-0.007629
55.547	-0.005798	-0.16205	-0.003357	-0.001831	-0.052032	-0.010529	0.063934	-0.014496	0.007019	-0.064087	0.096588	-0.006256	0.1474	0.24841	-0.38315	0.010223	-0.020447	-0.22919	-0.19501	-0.003662	-0.032349	-0.072327	0.014496	-0.088959	-0.050812	0.00351	-0.77499	-0.008087	0.059509	0.19562	-0.007629	0.000305
55.548	-0.002594	-0.17319	0.080261	0.006409	-0.050812	-0.017853	0.081024	0.002899	-0.013123	-0.068207	-0.056458	-0.017242	0.072937	0.25803	-0.77911	0.00351	-0.050659	-0.20538	0.15717	0.070496	-0.03006	-0.11429	-0.024567	-0.059052	-0.041199	-0.014343	-0.35767	-0.007629	-0.039825	0.20935	-0.004272	-0.005646
55.549	0.005493	-0.17334	0.1149	-0.03067	-0.016937	0.046539	0.001678	0.010681	-0.030975	-0.070038	-0.1535	-0.012512	0.01709	0.19486	-0.021362	-0.019073	-0.062561	-0.28046	0.049133	0.14572	-0.030365	-0.13992	-0.003204	-0.046692	-0.039673	-0.008698	0.047302	-0.001526	0.03067	0.14023	-0.002594	0.005035
55.55	0.013428	-0.18585	0.070648	-0.009613	-0.008698	0.071564	-0.053406	0.00351	-0.000916	-0.037994	-0.21393	-0.00351	0.044098	0.13092	-0.56442	-0.004425	-0.06485	-0.26932	0.327	0.072174	-0.00061	-0.16708	0.013123	-0.032806	-0.016022	-0.007629	0.069275	-0.002289	0.037231	0.052643	-0.004272	-0.007477
55.551	0.016937	-0.19119	0.055237	-0.003815	0.042572	0.007629	-0.029144	-0.004272	0.029297	-0.069427	-0.1561	0.001984	0.11307	0.13428	-0.31647	0.006104	-0.05722	-0.24307	0.62363	0.037079	0.003967	-0.19104	0.061035	-0.042725	-0.029297	-0.009918	0.18082	-0.002136	-0.12314	0.029907	-0.006714	0.001068
55.552	0.02594	-0.16449	0.062714	-0.000153	0.037231	-0.014191	0.023193	-0.019073	0.059509	-0.036163	-0.045166	-0.014954	0.062561	0.096588	-0.66101	-0.011139	-0.0383	-0.22385	0.392	0.042419	0.012054	-0.20676	0.028076	-0.073242	-0.033417	-0.010376	0.28961	-0.003815	-0.17578	0.040283	-0.003662	-0.002289
55.553	0.026703	-0.14893	0.039825	-0.007477	0.099182	-0.005188	0.041351	-0.016479	0.046997	-0.029755	0.02243	-0.012207	0.002136	-0.021667	-0.37827	-0.001068	-0.002747	-0.18524	-0.012207	0.003815	0.00061	-0.21515	0.036774	-0.036774	-0.01236	-0.001984	0.13016	-0.001526	-0.009003	0.049744	-0.003052	-0.006409
55.554	0.023651	-0.15396	0.018005	-0.003662	0.12207	-0.016937	0.010986	-0.004578	0.057983	-0.008087	0.051575	-0.005493	-0.039673	-0.15198	-0.053864	0.000153	0.007324	-0.22568	0.000153	-0.041199	0.004578	-0.19257	0.028534	-0.059357	-0.033569	-0.002289	-0.10269	-0.000916	0.30579	0.018921	-0.001373	-0.001678
55.555	0.019836	-0.15701	0.052643	-0.000305	0.08316	-0.057526	0.05188	0.001526	0.062103	-0.008392	-0.030823	-0.006104	-0.001831	-0.18112	0.097809	-0.001526	0.00824	-0.21744	-0.15045	-0.072479	0.000458	-0.1799	0.029755	-0.060272	-0.038452	-0.005798	-0.17563	-0.003815	0.002747	-0.04715	0.004883	-0.003815
55.556	0.01358	-0.15854	0.093079	-0.005188	0.035248	-0.050659	0.050507	0.002747	0.058899	0.005188	-0.12894	-0.001068	0.007629	-0.16876	0.19501	-0.017548	0.009918	-0.22476	0.045929	-0.05722	-0.001831	-0.13336	-0.14145	-0.10834	-0.048065	-0.010376	-0.13901	-0.003815	-0.14084	-0.059204	-0.004272	-0.011749
55.557	0.01358	-0.15015	0.069885	0.019226	0.043793	-0.03067	-0.006104	0.006409	0.073547	0.042572	-0.1149	-0.002899	-0.04303	-0.24124	0.20325	-0.013733	-0.000763	-0.20355	0.088348	-0.073242	0.000916	-0.11902	-0.11002	-0.085297	-0.031128	-0.000305	0.016327	-0.001678	-0.22705	-0.048981	-0.003662	-0.012207
55.558	0.012054	-0.13184	0.089417	0.023956	0.039063	-0.004272	0.056458	0.003967	0.065002	0.011444	-0.064697	-0.006104	-0.04303	-0.28961	0.12436	0.000305	-0.004578	-0.18662	-0.23224	-0.059509	0.007324	-0.10986	-0.11063	-0.099945	-0.042419	0.007477	0.033112	-0.006561	-0.11948	-0.068207	-0.005188	-0.006714
55.559	0.007172	-0.15579	0.10101	0.005188	0.02594	-0.000916	0.028687	0.010071	0.053558	-0.03067	-0.017242	-0.002441	-0.048218	-0.24307	0.10284	-0.018616	-0.001984	-0.21271	-0.014343	0.094299	-0.000305	-0.1059	-0.071716	-0.10269	-0.035095	0.005188	0.010071	-0.001526	-0.22903	-0.082703	-0.004578	-0.00946
55.56	0.009155	-0.16434	0.075073	0.00946	0.023499	0.004883	0.067444	0.004883	0.063019	-0.000305	0.007782	0.003204	-0.025635	-0.11871	0.10056	-0.031128	0.012207	-0.22995	0.2594	0.014801	0.014801	-0.092773	0.002899	-0.073395	-0.037231	-0.003357	-0.084076	-0.002441	-0.072021	-0.053864	-0.003052	-0.008392
55.561	0.004272	-0.1416	0.037689	-0.002289	0.012512	0.016785	0.11917	0.000763	-0.072937	0.099182	0.033112	-0.001831	-0.048981	-0.016174	0.11215	-0.025177	-0.001221	-0.19547	0.075836	-0.14435	0.007629	-0.076904	-0.12375	-0.09201	-0.051117	-0.00885	-0.10147	-0.009155	-0.006256	-0.036163	-0.003662	-0.007782
55.562	0.010986	-0.13748	0.054626	-0.006104	0.012512	0.002899	0.11093	-0.001068	-0.046387	0.17654	0.039368	-0.001373	-0.06134	0.062561	0.15106	-0.045776	0.016479	-0.233	-0.003662	-0.12863	0.020447	-0.082245	-0.04364	-0.10757	-0.051117	-0.011139	0.12146	-0.01236	0.021515	-0.037689	-0.004272	-0.01358
55.563	0.008698	-0.16159	0.059052	0.003052	0.001831	-0.010071	0.047302	0.021362	-0.012665	0.059509	0.016937	0	-0.06546	0.075836	0.14267	-0.51376	0.036163	-0.22492	0.079041	-0.006104	-0.007019	-0.092163	0.00412	-0.089111	-0.068359	-0.008087	0.39002	-0.003204	0.062256	-0.053406	-0.003662	-0.007019
55.564	0.002594	-0.13138	0.047455	0.036011	-0.007019	0.020599	0.041199	0.041199	-0.026855	-0.023041	0.033722	-0.009613	-0.06485	0.049896	0.084381	-0.13382	0.036621	-0.2211	0.30838	0.29587	-0.020752	-0.071869	0.13687	-0.049591	-0.041351	-0.007782	0.43106	-0.008087	-0.076752	-0.083313	-0.005341	-0.004272
55.565	0.009918	-0.15762	0.058289	0.029755	-0.001831	-0.000305	0.01236	0.050354	0.034637	-0.097961	0.036011	0.003052	-0.04425	0.059662	0.04425	1.0381	0.035095	-0.19134	0.12711	0.42709	-0.03418	-0.038757	0.15259	-0.067139	-0.010986	-0.007324	0.16876	-0.005035	-0.37338	-0.1236	-0.001831	-0.000305
